# xmcd
#
# Track frame offsets:
# 150
# 16405
# 29903
# 45638
# 61862
# 79028
# 95402
# 112412
# 127367
# 141860
# 158733
# 175195
# 189467
#
# Disc length: 2738 seconds
#
#
# Revision: 0
# Processed by: cddbd v1.5.1PL2 Copyright (c) Steve Scherf et al.
# Submitted via: FreeRIP 2.80 
#
DISCID=b90ab00d
DTITLE=Rebelde - Nosso Amor
DYEAR=2006
DGENRE=Blues
TTITLE0=Nosso Amor
TTITLE1=Feliz Aniversário
TTITLE2=Esse Coração
TTITLE3=Venha De Novo O Amor
TTITLE4=Ao Seu Lado
TTITLE5=Fora
TTITLE6=O Que Houve Com O Amor
TTITLE7=O Que Ha Por Trás
TTITLE8=Atrás De Mim
TTITLE9=Só Para Você
TTITLE10=Uma Canção
TTITLE11=Asy Soy Yo
TTITLE12=Me Voy
EXTD=
EXTT0=
EXTT1=
EXTT2=
EXTT3=
EXTT4=
EXTT5=
EXTT6=
EXTT7=
EXTT8=
EXTT9=
EXTT10=
EXTT11=
EXTT12=
PLAYORDER=
